<?xml version="1.0" standalone="no"?><!DOCTYPE svg PUBLIC "-//W3C//DTD SVG 1.1//EN" "http://www.w3.org/Graphics/SVG/1.1/DTD/svg11.dtd"><svg t="1726064130728" class="icon" viewBox="0 0 1024 1024" version="1.1" xmlns="http://www.w3.org/2000/svg" p-id="1670" xmlns:xlink="http://www.w3.org/1999/xlink" width="200" height="200"><path d="M565.8 489.5c24.9 9 40.4 4.2 45.2 2.4 15.2-10 20.5-70 1.8-79.6-6-7.3-51.2-8.4-56.1-2.4 4.2-2.4 2.8-33.6 0-36.2-13.7-12.8-44.6-13.9-59.1 0-4.2 2.4-6.6 33.2 0 37.4-44.6 16.3-73.5 50.7-77.2 61.5-7.2 6.6-25.9 51.9 0 91.6 25.9 39.8 116.3 71.1 133.8 83.2s13.9 66.3 0 69.9c-3 8.4-73.5 10.9-107.3 4.8 0.6-20.5 0-13.3-4.2-21.7-4.2-8.5-45.2-6.7-51.2 0-6 6.6-10.2 65 0.6 72.3 16.3 10.2 98.3-2.4 103.1 3.6 4.8 6-8.4 39.8 0 49.4 8.4 9.7 53.6 8.5 60.3 0 6.6-8.4-4.2-42.2 0-48.2s18.1-2.4 33.8-4.8c15.7-2.4 31.3-19.3 39.8-34.9 8.4-15.7 7.8-78.3 0-95.2-7.8-16.9-36.8-40.4-54.3-54.3-17.5-13.9-56.1-35.5-86.8-44.6-10.9-15.1-6.6-48.7 0-59.1 20.2-31.6 48.7-10.1 77.8 4.9z" fill="#040000" p-id="1671"></path><path d="M693.6 243.1l28.1-103c10.1-15 11.1-34.3 2.6-50.3C715.8 74 699.2 64 681.1 64L512.7 81.2 327 64c-18.1 0-34.6 10-43.1 25.9-3.8 7.2-5.7 15.1-5.7 23 0 9.6 2.8 19.1 8.3 27.3l32.1 105.1C199.9 259.1 75.2 327.5 75.2 505.9 75.2 808.6 210.7 960 513.4 960s435.4-151.4 435.4-454.1c0-182.8-134-251.1-255.2-262.8zM513.4 898.7c-226.3 0-339.5-113.2-339.5-339.5S346.5 285 511.2 281.5c164.7-3.6 341.6 51.4 341.6 277.7 0.1 226.3-113.1 339.5-339.4 339.5z" fill="#040000" p-id="1672"></path></svg>