<?xml version="1.0" standalone="no"?><!DOCTYPE svg PUBLIC "-//W3C//DTD SVG 1.1//EN" "http://www.w3.org/Graphics/SVG/1.1/DTD/svg11.dtd"><svg t="1726064266723" class="icon" viewBox="0 0 1026 1024" version="1.1" xmlns="http://www.w3.org/2000/svg" p-id="2852" xmlns:xlink="http://www.w3.org/1999/xlink" width="200.390625" height="200"><path d="M164.689162 305.692c-21.38 0-52.861-2.453-75.588-24.338-10.228-9.85-22.531-27.783-23.058-57.282-0.371-20.785 6.371-38.588 20.038-52.917 10.327-10.826 22.761-17.728 33.731-23.817 21.512-11.94 26.607-16.168 27.26-30.313 0.368-7.966-1.971-11.408-4.306-13.725-10.549-10.464-38.413-13.537-50.992-12.847l-3.473-63.906c6.593-0.357 65.418-2.524 99.534 31.314 16.287 16.154 24.298 37.633 23.168 62.114-1.045 22.654-8.948 41.907-23.488 57.225-11.549 12.167-24.881 19.567-36.645 26.096-20.981 11.646-20.948 13.497-20.838 19.632 0.108 6.071 1.273 10.217 3.461 12.325 7.238 6.969 29.729 6.522 39.328 6.332 2.328-0.046 4.441-0.085 6.288-0.085l0 64c-1.473 0-3.16 0.036-5.017 0.073C171.270162 305.629 168.107162 305.692 164.689162 305.692z" p-id="2853"></path><path d="M412.396162 305.692c-21.382 0-52.861-2.453-75.59-24.338-10.228-9.85-22.529-27.783-23.058-57.282-0.371-20.785 6.371-38.588 20.038-52.917 10.327-10.826 22.761-17.728 33.73-23.817 21.513-11.94 26.606-16.168 27.261-30.313 0.368-7.966-1.973-11.408-4.308-13.725-10.55-10.464-38.41-13.537-50.99-12.847l-3.475-63.906c6.593-0.357 65.418-2.524 99.534 31.314 16.287 16.154 24.298 37.633 23.168 62.114-1.045 22.654-8.948 41.907-23.488 57.225-11.549 12.167-24.881 19.567-36.645 26.096-20.981 11.646-20.948 13.497-20.838 19.632 0.106 6.071 1.271 10.217 3.461 12.325 7.237 6.969 29.727 6.522 39.328 6.332 2.327-0.046 4.439-0.085 6.288-0.085l0 64c-1.475 0-3.16 0.036-5.019 0.073C418.977162 305.629 415.814162 305.692 412.396162 305.692z" p-id="2854"></path><path d="M674.674162 305.692c-21.38 0-52.86-2.455-75.588-24.339-10.228-9.849-22.53-27.782-23.058-57.282-0.371-20.785 6.371-38.588 20.038-52.917 10.327-10.826 22.761-17.728 33.729-23.817 21.513-11.94 26.606-16.168 27.26-30.313 0.367-7.966-1.971-11.408-4.306-13.725-10.551-10.464-38.416-13.538-50.992-12.847l-3.473-63.906c6.594-0.356 65.416-2.526 99.534 31.314 16.286 16.154 24.298 37.633 23.168 62.114-1.045 22.654-8.948 41.907-23.488 57.225-11.549 12.167-24.881 19.567-36.644 26.096-20.981 11.646-20.948 13.497-20.84 19.632 0.107 6.07 1.271 10.217 3.462 12.324 7.237 6.97 29.727 6.524 39.327 6.333 2.327-0.046 4.44-0.085 6.287-0.085l0 64c-1.474 0-3.158 0.036-5.017 0.073C681.254162 305.629 678.093162 305.692 674.674162 305.692z" p-id="2855"></path><path d="M891.622162 359.189c-28.037 0-54.078 8.695-75.583 23.52L816.039162 360.5l-816 0 0 235.586c-0.288 12.42-1.647 170.282 108.255 283.575C179.640162 953.208 280.489162 990.5 408.039162 990.5c128.675 0 230.134-37.351 301.557-111.016 106.54-109.883 106.745-260.889 106.455-276.808 21.503 14.82 47.539 23.513 75.571 23.513 73.612 0 133.5-59.889 133.5-133.5C1025.122162 419.077 965.234162 359.189 891.622162 359.189zM891.622162 562.188c-38.322 0-69.5-31.178-69.5-69.499 0-38.322 31.178-69.5 69.5-69.5s69.5 31.178 69.5 69.499S929.944162 562.188 891.622162 562.188z" p-id="2856"></path></svg>